<svg width="263" height="49" viewBox="0 0 263 49" fill="none" xmlns="http://www.w3.org/2000/svg">
<path d="M13.1893 26.6656C22.3411 26.6656 28.4218 22.5504 28.4218 14.197C28.4218 6.15081 22.7096 1.72846 13.1893 1.72846H7.84557V3.50968H13.1893C21.4812 3.50968 26.4563 7.31782 26.4563 14.197C26.4563 21.1377 21.5426 24.8844 13.1893 24.8844H2.31763V1.72846H0.413561V47.4875H2.31763V26.6656H13.1893ZM21.2969 30.5966L19.3928 30.9651L27.9304 47.4875H30.0188L21.2969 30.5966ZM66.5286 1.72846H47.7336V3.50968H66.5286V1.72846ZM65.3002 22.8575H47.7336V24.6387H65.3002V22.8575ZM66.5286 47.4875V45.7063H42.2057V1.72846H40.3016V47.4875H66.5286ZM108.407 47.4875V1.72846H106.503V47.4875H108.407ZM100.975 1.72846H76.5907V47.4875H78.4948V3.50968H100.975V1.72846ZM99.7467 24.0859H84.0228V25.8671H99.7467V24.0859ZM132.73 45.7063H113.935V47.4875H132.73V45.7063ZM170.303 1.72846H168.399V26.6042C168.399 38.9499 164.713 45.0307 156.79 46.1977V48.0403C165.819 46.9962 170.303 40.0555 170.303 27.2184V1.72846ZM139.653 1.72846H137.749V27.2184C137.749 40.0555 142.233 46.9962 151.262 48.0403V46.1977C143.339 45.0307 139.653 38.9499 139.653 26.6042V1.72846ZM213.561 47.119L181.315 1.72846H179.226V2.09699L211.473 47.4875H213.561V47.119ZM212.947 1.72846H210.981L199.188 18.2509L200.294 19.8478L212.947 2.09699V1.72846ZM192.985 30.1052L191.879 28.5083L178.612 47.119V47.4875H180.578L192.985 30.1052ZM219.255 24.6387C219.255 18.6808 221.22 13.5214 225.213 9.28331C229.205 4.9838 234.057 2.83404 239.831 2.83404C244.438 2.83404 248.43 4.18532 251.87 6.94929L253.16 5.5366C249.351 2.52694 244.929 0.991398 239.831 0.991398C233.505 0.991398 228.161 3.32542 223.8 7.93204C219.439 12.5387 217.289 18.128 217.289 24.6387C217.289 30.1667 218.886 35.0804 222.142 39.3185L223.432 37.8444C220.668 34.0362 219.255 29.6139 219.255 24.6387ZM239.831 48.2246C246.158 48.2246 251.501 45.952 255.862 41.3454C260.223 36.7388 262.373 31.1494 262.373 24.6387C262.373 19.0493 260.776 14.1356 257.521 9.89753L256.169 11.3717C258.995 15.2412 260.407 19.6636 260.407 24.6387C260.407 30.5966 258.442 35.756 254.449 39.9941C250.457 44.2322 245.605 46.382 239.831 46.382C235.286 46.382 231.232 45.0307 227.731 42.2667L226.441 43.6794C230.311 46.6891 234.733 48.2246 239.831 48.2246Z" fill="black"/>
</svg>
